<svg width="46" height="46" viewBox="0 0 46 46" fill="black" xmlns="http://www.w3.org/2000/svg">
<path d="M46 25.0909V20.9091H39.5809C39.2045 17.94 38.0336 15.1173 36.1936 12.7545L40.7727 8.21727L37.7827 5.22727L33.2455 9.80636C30.8827 7.96636 28.06 6.79545 25.0909 6.41909V0H20.9091V6.41909C17.94 6.79545 15.1173 7.96636 12.7545 9.80636L8.21727 5.22727L5.22727 8.21727L9.80636 12.7545C7.96636 15.1173 6.79545 17.94 6.41909 20.9091H0V25.0909H6.41909C6.79545 28.06 7.96636 30.8827 9.80636 33.2455L5.22727 37.7827L8.21727 40.7727L12.7545 36.1936C15.1173 38.0336 17.94 39.2045 20.9091 39.5809V46H25.0909V39.5809C28.06 39.2045 30.8827 38.0336 33.2455 36.1936L37.7827 40.7727L40.7727 37.7827L36.1936 33.2455C38.0336 30.8827 39.2045 28.06 39.5809 25.0909H46ZM23 14.6364C20.7818 14.6364 18.6545 15.5175 17.086 17.086C15.5175 18.6545 14.6364 20.7818 14.6364 23H10.4545C10.4545 19.6727 11.7763 16.4818 14.129 14.129C16.4818 11.7763 19.6727 10.4545 23 10.4545V14.6364Z" fill="black"/>
</svg>
